<svg xmlns="http://www.w3.org/2000/svg" xmlns:xlink="http://www.w3.org/1999/xlink" width="500" zoomAndPan="magnify" viewBox="0 0 375 374.999991" height="500" preserveAspectRatio="xMidYMid meet" version="1.0"><defs><g/><clipPath id="3f80346370"><path d="M 145.5 150 L 229.5 150 L 229.5 164 L 145.5 164 Z M 145.5 150 " clip-rule="nonzero"/></clipPath><clipPath id="d342212d00"><path d="M 161 109.386719 L 186 109.386719 L 186 134 L 161 134 Z M 161 109.386719 " clip-rule="nonzero"/></clipPath><clipPath id="31022d539f"><path d="M 189 137 L 229.5 137 L 229.5 147 L 189 147 Z M 189 137 " clip-rule="nonzero"/></clipPath><clipPath id="a556bfe524"><path d="M 145.5 137 L 186 137 L 186 147 L 145.5 147 Z M 145.5 137 " clip-rule="nonzero"/></clipPath></defs><g clip-path="url(#3f80346370)"><path fill="#191970" d="M 145.460938 150.613281 L 145.460938 163.019531 L 229.40625 163.019531 L 229.40625 150.613281 L 145.460938 150.613281 " fill-opacity="1" fill-rule="nonzero"/></g><path fill="#191970" d="M 189.421875 199.851562 L 218.113281 199.851562 C 220.582031 199.851562 222.582031 197.839844 222.582031 195.382812 L 222.582031 184.773438 L 189.421875 184.773438 L 189.421875 199.851562 " fill-opacity="1" fill-rule="nonzero"/><path fill="#191970" d="M 189.421875 180.78125 L 222.582031 180.78125 L 222.582031 167.007812 L 189.421875 167.007812 L 189.421875 180.78125 " fill-opacity="1" fill-rule="nonzero"/><path fill="#191970" d="M 205.519531 121.691406 C 205.519531 120.507812 205.066406 119.402344 204.234375 118.566406 C 203.398438 117.722656 202.292969 117.277344 201.113281 117.277344 C 197.996094 117.277344 195.0625 118.496094 192.859375 120.703125 C 190.65625 122.914062 189.449219 125.851562 189.449219 128.972656 L 189.449219 133.390625 L 193.855469 133.390625 C 200.292969 133.390625 205.519531 128.136719 205.519531 121.691406 " fill-opacity="1" fill-rule="nonzero"/><g clip-path="url(#d342212d00)"><path fill="#191970" d="M 178.6875 133.390625 L 185.46875 133.390625 L 185.46875 126.585938 C 185.46875 122.117188 183.730469 117.898438 180.574219 114.722656 C 177.402344 111.542969 173.191406 109.800781 168.726562 109.800781 C 166.90625 109.800781 165.207031 110.503906 163.929688 111.796875 C 162.644531 113.085938 161.941406 114.789062 161.941406 116.613281 C 161.941406 125.863281 169.449219 133.390625 178.6875 133.390625 " fill-opacity="1" fill-rule="nonzero"/></g><g clip-path="url(#31022d539f)"><path fill="#191970" d="M 218.175781 137.378906 L 189.421875 137.378906 L 189.421875 146.625 L 229.21875 146.625 C 228.289062 141.367188 223.6875 137.378906 218.175781 137.378906 " fill-opacity="1" fill-rule="nonzero"/></g><path fill="#191970" d="M 152.265625 195.382812 C 152.265625 197.839844 154.273438 199.851562 156.742188 199.851562 L 185.441406 199.851562 L 185.441406 184.773438 L 152.265625 184.773438 L 152.265625 195.382812 " fill-opacity="1" fill-rule="nonzero"/><path fill="#191970" d="M 152.265625 180.78125 L 185.441406 180.78125 L 185.441406 167.007812 L 152.265625 167.007812 L 152.265625 180.78125 " fill-opacity="1" fill-rule="nonzero"/><g clip-path="url(#a556bfe524)"><path fill="#191970" d="M 185.441406 137.378906 L 156.671875 137.378906 C 151.164062 137.378906 146.574219 141.367188 145.648438 146.625 L 185.441406 146.625 L 185.441406 137.378906 " fill-opacity="1" fill-rule="nonzero"/></g><g fill="#191970" fill-opacity="1"><g transform="translate(104.164173, 222.300878)"><g><path d="M 9.097656 -8.117188 L 9.097656 -9.890625 C 9.097656 -9.890625 7.820312 -12.128906 4.714844 -12.128906 C 2.238281 -12.128906 0.664062 -10.757812 0.664062 -8.632812 C 0.664062 -7.320312 1.3125 -6.488281 2.792969 -5.730469 L 6.285156 -3.957031 C 6.988281 -3.585938 7.171875 -3.179688 7.171875 -2.699219 C 7.171875 -1.921875 6.453125 -1.460938 5.324219 -1.460938 C 3.625 -1.460938 2.734375 -2.292969 2.328125 -2.847656 L 2.253906 -3.753906 L 0.664062 -3.753906 L 0.664062 -1.976562 C 0.664062 -1.976562 1.960938 0.242188 5.289062 0.242188 C 7.875 0.242188 9.632812 -1.015625 9.632812 -3.144531 C 9.632812 -4.398438 9.039062 -5.34375 7.691406 -6.027344 L 4.066406 -7.855469 C 3.421875 -8.226562 3.105469 -8.578125 3.105469 -9.097656 C 3.105469 -9.929688 3.769531 -10.410156 4.769531 -10.410156 C 5.988281 -10.410156 6.878906 -9.796875 7.394531 -9.28125 L 7.46875 -8.117188 Z M 9.097656 -8.117188 "/></g></g></g><g fill="#191970" fill-opacity="1"><g transform="translate(119.451208, 222.300878)"><g><path d="M 5.378906 -11.851562 L 1.21875 -1.941406 L 0.351562 -1.941406 L 0.351562 0 L 4.769531 0 L 4.769531 -1.941406 L 3.808594 -1.941406 L 4.53125 -3.902344 L 8.746094 -3.902344 L 9.464844 -1.941406 L 8.523438 -1.941406 L 8.523438 0 L 12.941406 0 L 12.941406 -1.941406 L 12.054688 -1.941406 L 7.894531 -11.851562 Z M 5.15625 -5.621094 L 6.636719 -9.652344 L 8.117188 -5.621094 Z M 5.15625 -5.621094 "/></g></g></g><g fill="#191970" fill-opacity="1"><g transform="translate(137.861439, 222.300878)"><g><path d="M 9.261719 -4.03125 L 3.308594 -11.851562 L 0.535156 -11.867188 L 0.535156 -9.945312 L 1.367188 -9.945312 L 1.367188 -1.941406 L 0.535156 -1.941406 L 0.535156 0 L 4.675781 0 L 4.675781 -1.941406 L 3.84375 -1.941406 L 3.84375 -7.820312 L 9.796875 0 L 11.722656 0 L 11.722656 -9.945312 L 12.554688 -9.945312 L 12.554688 -11.851562 L 8.410156 -11.867188 L 8.410156 -9.945312 L 9.261719 -9.945312 Z M 9.261719 -4.03125 "/></g></g></g><g fill="#191970" fill-opacity="1"><g transform="translate(156.086872, 222.300878)"><g><path d="M 0.351562 -11.867188 L 0.351562 -8.761719 L 2.164062 -8.761719 L 2.253906 -9.929688 L 4.269531 -9.945312 L 4.269531 -1.941406 L 3.421875 -1.941406 L 3.421875 0 L 7.578125 0 L 7.578125 -1.941406 L 6.746094 -1.941406 L 6.746094 -9.945312 L 8.746094 -9.929688 L 8.855469 -8.761719 L 10.6875 -8.761719 L 10.6875 -11.851562 Z M 0.351562 -11.867188 "/></g></g></g><g fill="#191970" fill-opacity="1"><g transform="translate(172.224008, 222.300878)"><g><path d="M 5.378906 -11.851562 L 1.21875 -1.941406 L 0.351562 -1.941406 L 0.351562 0 L 4.769531 0 L 4.769531 -1.941406 L 3.808594 -1.941406 L 4.53125 -3.902344 L 8.746094 -3.902344 L 9.464844 -1.941406 L 8.523438 -1.941406 L 8.523438 0 L 12.941406 0 L 12.941406 -1.941406 L 12.054688 -1.941406 L 7.894531 -11.851562 Z M 5.15625 -5.621094 L 6.636719 -9.652344 L 8.117188 -5.621094 Z M 5.15625 -5.621094 "/></g></g></g><g fill="#191970" fill-opacity="1"><g transform="translate(190.634237, 222.300878)"><g><path d="M 9.097656 -8.117188 L 9.097656 -9.890625 C 9.097656 -9.890625 7.820312 -12.128906 4.714844 -12.128906 C 2.238281 -12.128906 0.664062 -10.757812 0.664062 -8.632812 C 0.664062 -7.320312 1.3125 -6.488281 2.792969 -5.730469 L 6.285156 -3.957031 C 6.988281 -3.585938 7.171875 -3.179688 7.171875 -2.699219 C 7.171875 -1.921875 6.453125 -1.460938 5.324219 -1.460938 C 3.625 -1.460938 2.734375 -2.292969 2.328125 -2.847656 L 2.253906 -3.753906 L 0.664062 -3.753906 L 0.664062 -1.976562 C 0.664062 -1.976562 1.960938 0.242188 5.289062 0.242188 C 7.875 0.242188 9.632812 -1.015625 9.632812 -3.144531 C 9.632812 -4.398438 9.039062 -5.34375 7.691406 -6.027344 L 4.066406 -7.855469 C 3.421875 -8.226562 3.105469 -8.578125 3.105469 -9.097656 C 3.105469 -9.929688 3.769531 -10.410156 4.769531 -10.410156 C 5.988281 -10.410156 6.878906 -9.796875 7.394531 -9.28125 L 7.46875 -8.117188 Z M 9.097656 -8.117188 "/></g></g></g><g fill="#191970" fill-opacity="1"><g transform="translate(205.921277, 222.300878)"><g/></g></g><g fill="#191970" fill-opacity="1"><g transform="translate(216.163166, 222.300878)"><g><path d="M 11.722656 -1.996094 L 11.722656 -6.414062 L 6.820312 -6.414062 L 6.820312 -4.601562 L 9.261719 -4.601562 L 9.261719 -2.238281 C 8.726562 -1.902344 8.003906 -1.664062 7.097656 -1.664062 C 4.53125 -1.664062 3.328125 -3.585938 3.328125 -5.933594 C 3.328125 -8.28125 4.53125 -10.1875 7.136719 -10.1875 C 8.207031 -10.1875 9.039062 -9.871094 9.613281 -9.519531 L 9.890625 -7.949219 L 11.722656 -7.949219 L 11.722656 -9.855469 C 11.722656 -9.855469 10.335938 -12.128906 6.933594 -12.128906 C 2.808594 -12.128906 0.867188 -9.355469 0.867188 -5.933594 C 0.867188 -2.515625 2.808594 0.242188 6.894531 0.242188 C 10.351562 0.242188 11.722656 -1.996094 11.722656 -1.996094 Z M 11.722656 -1.996094 "/></g></g></g><g fill="#191970" fill-opacity="1"><g transform="translate(234.166827, 222.300878)"><g><path d="M 0.535156 -11.867188 L 0.535156 -9.945312 L 1.367188 -9.945312 L 1.367188 -1.941406 L 0.535156 -1.941406 L 0.535156 0 L 4.675781 0 L 4.675781 -1.941406 L 3.84375 -1.941406 L 3.84375 -9.945312 L 4.675781 -9.929688 L 4.675781 -11.851562 Z M 0.535156 -11.867188 "/></g></g></g><g fill="#191970" fill-opacity="1"><g transform="translate(244.501116, 222.300878)"><g><path d="M 0.535156 -11.851562 L 0.535156 -9.945312 L 1.367188 -9.945312 L 1.367188 -1.941406 L 0.535156 -1.941406 L 0.535156 0 L 4.675781 0 L 4.675781 -1.941406 L 3.84375 -1.941406 L 3.84375 -4.972656 L 7.300781 -4.972656 L 7.300781 -6.894531 L 3.84375 -6.894531 L 3.84375 -9.945312 L 8.023438 -9.945312 L 8.132812 -9.003906 L 9.855469 -9.003906 L 9.855469 -11.851562 Z M 0.535156 -11.851562 "/></g></g></g><g fill="#191970" fill-opacity="1"><g transform="translate(259.82512, 222.300878)"><g><path d="M 0.351562 -11.867188 L 0.351562 -8.761719 L 2.164062 -8.761719 L 2.253906 -9.929688 L 4.269531 -9.945312 L 4.269531 -1.941406 L 3.421875 -1.941406 L 3.421875 0 L 7.578125 0 L 7.578125 -1.941406 L 6.746094 -1.941406 L 6.746094 -9.945312 L 8.746094 -9.929688 L 8.855469 -8.761719 L 10.6875 -8.761719 L 10.6875 -11.851562 Z M 0.351562 -11.867188 "/></g></g></g></svg>